<svg width="745" height="70" viewBox="0 0 745 70" fill="none" xmlns="http://www.w3.org/2000/svg">
<path d="M15.4 68.2H-4.81904e-05V1.49995H13.4L49.6 44.4999V1.49995H65V68.2H51.6L15.4 25V68.2ZM127.29 1.49995V14.5H104.99V27.3999H126.19V40.3999H104.99V55.2H127.29V68.2H89.5898V1.49995H127.29ZM143.485 68.2L167.985 32.8L147.285 1.49995H165.785L176.785 20.4999L187.785 1.49995H206.285L185.585 32.8L210.085 68.2H191.585L176.785 45.1L161.985 68.2H143.485ZM266.24 14.5H251.74V68.2H236.34V14.5H221.84V1.49995H266.24V14.5ZM310.776 1.49995H327.376L344.276 44.2L361.176 1.49995H377.776L349.476 68.2H339.076L310.776 1.49995ZM427.773 -5.29289e-05C438.173 -5.29289e-05 446.873 3.19995 453.573 9.69995C459.873 15.7999 463.973 24.5999 463.973 34.9C463.973 43.7999 460.773 52.8999 453.573 59.9C447.373 65.9 438.973 69.7 427.773 69.7C415.273 69.7 406.773 64.7 401.773 59.9C395.373 53.9 391.373 44.9 391.373 35.0999C391.373 25.4999 395.673 15.7999 401.673 9.79995C406.173 5.29995 414.473 -5.29289e-05 427.773 -5.29289e-05ZM427.673 14.1999C421.873 14.1999 416.673 16.2999 413.073 19.9C410.173 22.6999 407.173 27.5999 407.173 34.9999C407.173 41.0999 409.173 45.9999 413.273 50C417.573 54.1 422.373 55.5 427.573 55.5C434.373 55.5 439.173 53 442.373 49.7999C444.973 47.3 448.173 42.5999 448.173 34.9C448.173 28 445.373 22.9 442.373 19.9C439.073 16.6999 433.773 14.1999 427.673 14.1999ZM495.975 68.2V37.0999L472.075 1.49995H490.275L503.675 22.2L517.075 1.49995H535.275L511.375 37.0999V68.2H495.975ZM588.458 68.2L583.458 55.6H558.258L553.158 68.2H537.158L564.058 1.49995H578.158L604.458 68.2H588.458ZM562.758 43.7999H579.258L571.058 21.3999L562.758 43.7999ZM652.08 44.2V31.7999H685.18V32.4999C685.18 40.5999 682.28 52.8999 674.88 60.6C667.48 68.3 658.98 69.7 651.08 69.7C643.08 69.7 634.48 68.4 626.68 60.4C622.78 56.4 616.88 48.2999 616.88 34.9999C616.88 24.0999 620.88 15.4 626.48 9.69995C634.68 1.19995 644.78 -5.29289e-05 652.68 -5.29289e-05C658.18 -5.29289e-05 665.18 0.899947 671.38 4.99995C675.88 7.99995 679.78 12.7 682.18 16.9L668.28 24.3999C666.98 21.7999 664.98 19.0999 662.38 17.1999C659.38 15 655.98 13.9999 652.18 13.9999C646.08 13.9999 641.58 15.9999 638.38 19.3999C634.68 23.2999 632.68 28.9999 632.68 35.1999C632.68 42.8 635.48 47.6999 638.28 50.5C642.18 54.5 646.68 55.7 651.78 55.7C658.38 55.7 661.88 53.4 663.38 52.0999C663.88 51.7 666.88 49.0999 668.18 44.2H652.08ZM744.341 1.49995V14.5H722.041V27.3999H743.241V40.3999H722.041V55.2H744.341V68.2H706.641V1.49995H744.341Z" fill="white"/>
</svg>
