<svg width="192" height="169" viewBox="0 0 192 169" fill="none" xmlns="http://www.w3.org/2000/svg">
<path d="M96.0801 0C96.7284 2.6972 97.1047 7.06509 97.5438 9.93109C98.7188 17.5799 99.3084 26.3667 100.67 33.8927C122.594 21.1565 146.961 7.35511 172.673 5.11055C181.445 4.34475 191.679 8.5195 191.219 18.5325C190.223 40.212 170.743 63.7305 156.705 78.7202C167.648 79.5586 180.656 81.1233 191.59 82.3952C188.373 82.9275 184.367 83.0814 181.044 83.494C170.542 84.7982 159.454 85.3552 149.007 86.726C147.348 88.1214 145.26 90.2147 143.64 91.7318C140.648 94.5531 137.598 97.3156 134.497 100.019C124.185 109.012 113.286 117.309 101.869 124.851L98.1903 153.619C97.7055 157.298 96.9604 164.66 96.2019 168.072L96.0648 168.104L95.9356 167.363C94.4014 155.422 92.9375 143.471 91.544 131.51C70.3895 144.712 43.1322 158.441 17.6896 159.736C8.80427 160.188 -0.382666 155.792 0.0122982 145.762C0.265536 139.328 2.83825 132.314 6.03928 126.698C14.1556 112.459 25.8047 97.81 37.5161 86.247C25.4328 84.8097 13.1679 83.8362 1.11291 82.4008C10.1313 81.281 19.6646 80.4085 28.7328 79.4636L86.7606 73.3843C87.6752 67.9988 88.3415 60.9737 89.0609 55.4073L93.8254 17.837C94.5098 12.2605 95.1466 5.42138 96.0801 0ZM43.8684 87.0739C36.1485 96.2452 19.5342 117.789 20.6773 130.564C22.2121 147.714 50.477 138.322 60.548 134.353C69.3155 130.839 82.1321 124.932 90.0973 119.904C89.0159 110.822 87.8943 100.569 86.4806 91.5703L57.0958 88.4352C53.5573 88.0721 47.2305 87.1614 43.8684 87.0739ZM131.908 88.7051C131.683 88.7089 131.562 88.6823 131.368 88.7545C125.995 89.2374 120.63 89.7965 115.271 90.4277C112.744 90.711 108.335 91.0932 106 91.6141C105.782 93.7589 103.536 109.831 103.894 110.673L104.339 110.542C112.907 104.797 121.088 98.5003 128.834 91.6884C129.457 91.1389 131.649 89.3211 131.908 88.7051ZM167.167 26.565C163.951 23.4512 159.283 22.7357 154.973 22.8306C154.142 22.849 153.271 22.8397 152.465 22.9512C138.288 24.3344 124.451 29.5514 111.521 35.3401C108.559 36.6668 104.483 38.5913 101.662 40.183C102.7 50.9685 104.516 62.2902 105.858 73.0909C110.014 73.9366 117.349 74.5244 121.765 75.0092C129.022 75.8132 136.284 76.5763 143.551 77.2984C153.178 67.9123 169.317 48.2825 169.914 34.1474C170.027 31.4837 169.135 28.4698 167.167 26.565Z" fill="#FEFEFE"/>
<path d="M84.5544 44.5107C84.7613 45.5381 84.3052 48.5403 84.1502 49.643C73.6751 56.2629 65.3137 61.8393 55.3944 69.2387C55.8239 67.2953 80.787 47.3467 84.5544 44.5107Z" fill="#FEFEFE"/>
</svg>
